<svg width="48" height="48" viewBox="0 0 48 48" fill="none" xmlns="http://www.w3.org/2000/svg">
<path d="M38.327 34.9333C45.0727 26.4944 44.5415 14.1157 36.727 6.30187C32.6636 2.23787 27.2609 0 21.5142 0C15.7675 0 10.3648 2.23787 6.30135 6.30133C2.23787 10.3648 0 15.7675 0 21.5147C0 27.2608 2.23787 32.6635 6.30135 36.7269C10.3648 40.7904 15.7675 43.0277 21.5142 43.0277C26.4523 43.0277 31.1345 41.3712 34.9334 38.3275L43.9031 47.2965C44.3719 47.7659 44.9857 48 45.6001 48C46.2145 48 46.8284 47.7659 47.2972 47.2971C48.2343 46.36 48.2343 44.8405 47.2972 43.9035L38.327 34.9333ZM9.69549 33.3333C6.53869 30.176 4.80001 25.9792 4.80001 21.5147C4.80001 17.0501 6.53869 12.8528 9.69549 9.69547C12.8523 6.53867 17.0496 4.8 21.5142 4.8C25.9787 4.8 30.1761 6.53867 33.3329 9.69547C39.8497 16.2123 39.8497 26.8155 33.334 33.3328C33.3334 33.3333 33.3329 33.3333 33.3329 33.3339C33.3329 33.3344 33.3324 33.3344 33.3318 33.3349C30.175 36.4907 25.9782 38.2288 21.5142 38.2288C17.0496 38.2283 12.8523 36.4896 9.69549 33.3333Z" fill="white"/>
</svg>
