<svg width="24" height="24" viewBox="0 0 24 24" fill="none" xmlns="http://www.w3.org/2000/svg">
<path d="M0.0547254 23.9995C-0.0666839 22.6402 -0.000119719 21.3193 0.396921 20.0481C0.644427 19.255 1.27632 18.7417 2.05024 18.4984C3.15183 18.152 4.28155 17.897 5.38783 17.5647C6.04409 17.3669 6.70973 17.1522 7.32287 16.8466C8.71416 16.1533 8.94385 15.1516 8.29649 13.7206C7.57882 12.1344 6.91693 10.5125 6.37457 8.85834C5.87815 7.34619 5.85893 5.76889 6.26675 4.20096C6.85505 1.9332 8.53134 0.409334 10.8484 0.0905921C12.528 -0.140496 14.1312 0.0310622 15.5576 1.06791C17.6839 2.61475 18.0819 4.83844 17.8344 7.24588C17.6042 9.4827 16.7979 11.5583 15.7578 13.5368C14.8671 15.2304 15.2023 16.3066 16.9714 17.0055C18.125 17.4602 19.3494 17.7297 20.5415 18.0836C21.0309 18.2294 21.5385 18.3367 22.0026 18.542C22.9045 18.9404 23.5697 19.576 23.6812 20.6312C23.798 21.7365 23.8917 22.8441 24 24H0.0547254V23.9995Z" fill="white"/>
</svg>
